<svg id="visual" viewBox="0 0 800 250" width="800" height="250" xmlns="http://www.w3.org/2000/svg" xmlns:xlink="http://www.w3.org/1999/xlink" version="1.1"><rect x="0" y="0" width="800" height="250" fill="#6600FF"></rect><path d="M0 221L16.7 216.7C33.3 212.3 66.7 203.7 100 202.2C133.3 200.7 166.7 206.3 200 206.2C233.3 206 266.7 200 300 191.2C333.3 182.3 366.7 170.7 400 171.3C433.3 172 466.7 185 500 188.7C533.3 192.3 566.7 186.7 600 179.2C633.3 171.7 666.7 162.3 700 164C733.3 165.7 766.7 178.3 783.3 184.7L800 191L800 251L783.3 251C766.7 251 733.3 251 700 251C666.7 251 633.3 251 600 251C566.7 251 533.3 251 500 251C466.7 251 433.3 251 400 251C366.7 251 333.3 251 300 251C266.7 251 233.3 251 200 251C166.7 251 133.3 251 100 251C66.7 251 33.3 251 16.7 251L0 251Z" fill="#FFFFFF" stroke-linecap="round" stroke-linejoin="miter"></path></svg>